<?xml version="1.0" encoding="utf-8"?>
<!-- Generator: Adobe Illustrator 27.8.1, SVG Export Plug-In . SVG Version: 6.00 Build 0)  -->
<svg version="1.1" id="Слой_1" xmlns="http://www.w3.org/2000/svg" xmlns:xlink="http://www.w3.org/1999/xlink" x="0px" y="0px"
	 viewBox="0 0 48 48" style="enable-background:new 0 0 48 48;" xml:space="preserve">
<style type="text/css">
	.st0{fill:#834E3F;}
</style>
<g>
	<path class="st0" d="M43.4,16c0.1-0.5-0.1-0.8-0.6-1c-6.1-2-12.3-4-18.5-6c-0.2-0.1-0.6-0.1-0.8,0c-6.2,2-12.3,4-18.5,6
		c-0.5,0.2-0.6,0.5-0.5,0.9H43.4z M7.7,15.1c5.3-1.7,10.6-3.4,15.9-5.2c0.2-0.1,0.4-0.1,0.6,0c5.3,1.7,10.6,3.4,16,5.2
		c0.1,0,0.2,0.1,0.3,0.1c0,0,0,0,0,0.1l-33.2,0C7.5,15.1,7.6,15.1,7.7,15.1z"/>
	<rect x="3" y="38.1" class="st0" width="42" height="0.9"/>
	<path class="st0" d="M10.7,34.4c-0.2-3.6-0.4-7.2-0.5-10.7h-3c-0.2,3.6-0.4,7.1-0.5,10.7H10.7z"/>
	<path class="st0" d="M16.8,34.4c-0.2-3.6-0.4-7.1-0.6-10.7h-3c-0.2,3.6-0.4,7.1-0.5,10.7H16.8z"/>
	<path class="st0" d="M29.1,34.4c-0.2-3.6-0.4-7.2-0.6-10.7h-3c-0.2,3.6-0.4,7.2-0.5,10.7H29.1z"/>
	<path class="st0" d="M41.2,34.4c-0.2-3.6-0.4-7.2-0.5-10.7h-3c-0.2,3.6-0.4,7.1-0.5,10.7H41.2z"/>
	<path class="st0" d="M35.1,34.4c-0.2-3.6-0.4-7.1-0.5-10.7h-3c-0.2,3.6-0.4,7.1-0.5,10.7H35.1z"/>
	<path class="st0" d="M22.9,34.4c-0.2-3.6-0.4-7.1-0.5-10.7h-3c-0.2,3.6-0.4,7.2-0.5,10.7H22.9z"/>
	<rect x="4.3" y="36.9" class="st0" width="39.4" height="0.7"/>
	<rect x="5.6" y="20.4" class="st0" width="36.8" height="0.7"/>
	<rect x="5.6" y="19.3" class="st0" width="36.8" height="0.6"/>
	<rect x="5.6" y="35.8" class="st0" width="36.8" height="0.6"/>
	<rect x="15.5" y="16.5" class="st0" width="4.7" height="2.4"/>
	<rect x="33.9" y="16.5" class="st0" width="4.7" height="2.4"/>
	<rect x="21.6" y="16.5" class="st0" width="4.7" height="2.4"/>
	<rect x="27.8" y="16.5" class="st0" width="4.7" height="2.4"/>
	<rect x="9.4" y="16.5" class="st0" width="4.7" height="2.4"/>
	<rect x="5.6" y="16.5" class="st0" width="2.3" height="2.4"/>
	<rect x="40.1" y="16.5" class="st0" width="2.3" height="2.4"/>
	<rect x="36.7" y="34.8" class="st0" width="5.1" height="0.5"/>
	<rect x="18.4" y="34.8" class="st0" width="5.1" height="0.5"/>
	<rect x="24.5" y="34.9" class="st0" width="5.1" height="0.5"/>
	<rect x="6.1" y="34.8" class="st0" width="5.1" height="0.5"/>
	<rect x="12.3" y="34.9" class="st0" width="5.1" height="0.5"/>
	<rect x="30.5" y="34.9" class="st0" width="5.1" height="0.5"/>
	<rect x="12.8" y="21.6" class="st0" width="4.1" height="0.5"/>
	<rect x="6.6" y="21.6" class="st0" width="4.1" height="0.5"/>
	<rect x="31" y="21.6" class="st0" width="4.1" height="0.5"/>
	<rect x="18.9" y="21.6" class="st0" width="4.1" height="0.5"/>
	<rect x="25" y="21.6" class="st0" width="4.1" height="0.5"/>
	<rect x="37.2" y="21.6" class="st0" width="4.1" height="0.5"/>
	<path class="st0" d="M26.1,23.2c0.6,0,1.2,0,1.8,0c0.7,0,0.7,0,1-0.7h-3.8C25.4,23.2,25.4,23.2,26.1,23.2z"/>
	<path class="st0" d="M38.3,23.2c0.6-0.1,1.2-0.1,1.8,0c0.6,0.1,0.8-0.3,1-0.7l-3.8,0C37.5,23.1,37.8,23.3,38.3,23.2z"/>
	<path class="st0" d="M32.2,23.2c0.6-0.1,1.2-0.1,1.8,0c0.6,0.1,0.8-0.2,1-0.7l-3.8,0C31.3,23.1,31.6,23.3,32.2,23.2z"/>
	<path class="st0" d="M7.7,23.2c0.6-0.1,1.2-0.1,1.8,0c0.6,0.1,0.8-0.2,1-0.7H6.7C6.9,23.1,7.2,23.3,7.7,23.2z"/>
	<path class="st0" d="M13.9,23.2c0.6-0.1,1.2-0.1,1.8,0c0.6,0.1,0.8-0.2,1-0.7h-3.8C13.1,23,13.3,23.3,13.9,23.2z"/>
	<path class="st0" d="M20,23.2c0.6-0.1,1.3,0,1.9,0c0.6,0,0.7-0.1,0.9-0.7H19C19.1,23,19.4,23.3,20,23.2z"/>
	<path class="st0" d="M27,18.6c0-0.7,0-1.3,0-2c0-0.1-0.2-0.2-0.2-0.2c0,0-0.1,0.1-0.1,0.1c0,0.7,0,1.4,0,2.2c0,0.1,0.1,0.1,0.2,0.2
		C26.8,18.8,27,18.7,27,18.6z"/>
	<path class="st0" d="M39.2,18.8c0-0.7,0-1.4,0-2.2c0-0.1-0.1-0.1-0.2-0.2c-0.1,0.1-0.2,0.2-0.2,0.2c0,0.7,0,1.3,0,2
		c0,0.1,0.1,0.2,0.2,0.3C39.1,18.9,39.2,18.8,39.2,18.8z"/>
	<path class="st0" d="M33.7,18.8v-2.3c0,0-0.1-0.1-0.1-0.1c-0.1,0.1-0.2,0.2-0.2,0.2c0,0.7,0,1.3,0,2C33.3,18.7,33.5,18.8,33.7,18.8
		C33.6,18.9,33.6,18.8,33.7,18.8z"/>
	<path class="st0" d="M27.4,18.9l0.1-0.1c0-0.7,0-1.4,0-2.1c0-0.1-0.1-0.2-0.2-0.2c-0.1,0.1-0.2,0.1-0.2,0.2c0,0.7,0,1.3,0,2
		C27.2,18.7,27.3,18.8,27.4,18.9z"/>
	<path class="st0" d="M21.2,18.9c0.1-0.1,0.2-0.1,0.2-0.2c0-0.7,0-1.3,0-2c0-0.1-0.1-0.1-0.2-0.2c-0.1,0.1-0.2,0.1-0.2,0.2
		c0,0.3,0,0.7,0,1c0,0.3,0,0.7,0,1C21.1,18.7,21.2,18.8,21.2,18.9z"/>
	<path class="st0" d="M20.8,18.8v-2.5c-0.2,0.2-0.3,0.2-0.3,0.3c0,0.7,0,1.4,0,2c0,0.1,0.1,0.2,0.2,0.2
		C20.7,18.9,20.7,18.8,20.8,18.8z"/>
	<path class="st0" d="M15.2,18.6c0-0.3,0-0.7,0-1c0-0.3,0-0.6,0-1c0-0.1-0.1-0.2-0.2-0.2c-0.1,0.1-0.2,0.1-0.2,0.2c0,0.7,0,1.3,0,2
		c0,0.1,0.1,0.1,0.2,0.2C15.1,18.8,15.2,18.7,15.2,18.6z"/>
	<path class="st0" d="M14.7,18.6c0-0.7,0-1.3,0-2c0-0.1-0.1-0.2-0.2-0.2c0,0-0.1,0.1-0.1,0.1v2.4c0,0,0.1,0,0.1,0.1
		C14.5,18.8,14.7,18.7,14.7,18.6z"/>
	<path class="st0" d="M9.1,16.7c0-0.1-0.1-0.2-0.2-0.3c-0.1,0.1-0.2,0.2-0.2,0.2c0,0.7,0,1.4,0,2.1c0,0,0.1,0.1,0.1,0.1
		c0.1-0.1,0.2-0.2,0.2-0.3C9.1,18,9.1,17.3,9.1,16.7z"/>
	<path class="st0" d="M33.1,16.7c0-0.1-0.1-0.2-0.2-0.3c-0.1,0.1-0.2,0.2-0.2,0.2c0,0.7,0,1.4,0,2.1c0.1,0,0.1,0.1,0.2,0.1
		c0.1-0.1,0.2-0.2,0.2-0.3C33.1,18,33.1,17.3,33.1,16.7z"/>
	<path class="st0" d="M39.8,17.6c0-0.3,0-0.6,0-0.9c0-0.1-0.1-0.2-0.2-0.3c-0.1,0.1-0.2,0.2-0.2,0.3c0,0.6,0,1.3,0,1.9
		c0,0.1,0.1,0.2,0.2,0.2c0.1-0.1,0.2-0.2,0.2-0.3C39.8,18.3,39.8,18,39.8,17.6z"/>
	<path class="st0" d="M8.5,17.7c0-0.3,0-0.7,0-1c0-0.1-0.1-0.2-0.2-0.2c-0.1,0.1-0.2,0.2-0.2,0.2c0,0.7,0,1.3,0,2
		c0,0.1,0.1,0.2,0.2,0.2c0.1-0.1,0.2-0.2,0.2-0.3C8.5,18.3,8.5,18,8.5,17.7z"/>
	<path class="st0" d="M24.3,10.4c-0.2-0.1-0.5-0.1-0.7,0c-3.1,1-6.1,2-9.2,3c-1.4,0.4-2.7,0.9-4.1,1.3c0,0,0,0,0,0.1h27.2
		c-0.1,0-0.1-0.1-0.1-0.1C33.1,13.2,28.7,11.8,24.3,10.4z"/>
</g>
</svg>
