<svg width="24" height="25" viewBox="0 0 24 25" fill="none" xmlns="http://www.w3.org/2000/svg">
<path d="M9 14C10.381 14 11.631 13.44 12.536 12.535C13.44 11.631 14 10.381 14 9C14 7.619 13.44 6.369 12.536 5.465C11.631 4.56 10.381 4 9 4C7.619 4 6.369 4.56 5.464 5.465C4.56 6.369 4 7.619 4 9C4 10.381 4.56 11.631 5.464 12.535C6.369 13.44 7.619 14 9 14Z" fill="#834E3F"/>
<path d="M9 21C12.518 21 15 20 15 19C15 17 12.646 15 9 15C5.25 15 3 17 3 19C3 20 5.25 21 9 21Z" fill="#834E3F"/>
<path d="M21 12H19V10C19 9.447 18.553 9 18 9C17.447 9 17 9.447 17 10V12H15C14.447 12 14 12.447 14 13C14 13.553 14.447 14 15 14H17V16C17 16.553 17.447 17 18 17C18.553 17 19 16.553 19 16V14H21C21.553 14 22 13.553 22 13C22 12.447 21.553 12 21 12Z" fill="#834E3F"/>
</svg>
